<svg xmlns:xlink="http://www.w3.org/1999/xlink" width="215" height="216" viewBox="0 0 215 216" fill="none" xmlns="http://www.w3.org/2000/svg">
                        <rect x="57" y="144.084" width="104" height="8" rx="4" transform="rotate(-7.78337 57 144.084)" fill="#EB3A3A"></rect>
                        <g filter="url(#filter0_d_3236_2985)" fill="none">
                            <path d="M137.08 89.539C141.177 89.539 144.498 92.6799 144.498 96.5544C144.498 100.106 141.707 103.041 138.087 103.506L137.08 103.57H136.627C132.531 103.57 129.21 100.429 129.21 96.5544C129.21 93.0028 132 90.0676 135.621 89.603L136.627 89.539H137.08Z" fill="#EB3A3A"></path>
                            <path d="M86.8307 96.5544C86.8307 92.6799 83.5097 89.539 79.4129 89.539H78.9603L77.9537 89.603C74.3331 90.0676 71.5424 93.0028 71.5424 96.5544C71.5424 100.429 74.8635 103.57 78.9603 103.57H79.4129L80.4195 103.506C84.0401 103.041 86.8307 100.106 86.8307 96.5544Z" fill="#EB3A3A"></path>
                            <path fill-rule="evenodd" clip-rule="evenodd" d="M157.626 49.4684C155.003 25.6058 133.673 7.00042 107.749 7.00042C94.4428 6.94746 81.633 11.9208 72.1825 20.8209C63.9791 28.5466 58.8936 38.6788 57.6943 49.4684H57.6859C39.5219 49.4684 24.2613 62.0788 19.974 83.9746L12.2156 140.865C5.61169 182.522 26.2218 200.833 66.5578 200.833H149.121C186.423 200.833 208.718 180.193 204.14 143.151L196.131 84.3559C190.996 62.1877 176.128 49.4684 158.355 49.4684H157.626ZM142.674 49.4684C140.14 33.376 125.466 21.0313 107.717 21.0313C98.3258 20.9939 89.3054 24.496 82.6507 30.7632C77.2476 35.8517 73.7653 42.4227 72.6466 49.4684H142.674ZM57.686 63.4995H158.356C168.778 63.4995 177.935 71.333 181.53 86.7618L189.112 142.657C193.624 172.396 178.604 186.803 149.121 186.803H66.558C34.6329 186.803 21.749 175.355 26.9087 142.801L34.625 86.1484C37.5735 71.1482 46.8297 63.4995 57.686 63.4995Z" fill="#EB3A3A"></path>
                        </g>
                        <defs>
                            <filter id="filter0_d_3236_2985" x="0.842795" y="0.905677" width="214.047" height="214.148" filterUnits="userSpaceOnUse" color-interpolation-filters="sRGB">
                                <feFlood flood-opacity="0" result="BackgroundImageFix"></feFlood>
                                <feColorMatrix in="SourceAlpha" type="matrix" values="0 0 0 0 0 0 0 0 0 0 0 0 0 0 0 0 0 0 127 0" result="hardAlpha"></feColorMatrix>
                                <feOffset dy="4.06288"></feOffset>
                                <feGaussianBlur stdDeviation="5.0786"></feGaussianBlur>
                                <feComposite in2="hardAlpha" operator="out"></feComposite>
                                <feColorMatrix type="matrix" values="0 0 0 0 0.408333 0 0 0 0 0.408333 0 0 0 0 0.408333 0 0 0 0.38 0"></feColorMatrix>
                                <feBlend mode="normal" in2="BackgroundImageFix" result="effect1_dropShadow_3236_2985"></feBlend>
                                <feBlend mode="normal" in="SourceGraphic" in2="effect1_dropShadow_3236_2985" result="shape"></feBlend>
                            </filter>
                        </defs>
                    </svg>